<svg xmlns="http://www.w3.org/2000/svg" width="323" height="250" fill="none" viewBox="0 0 323 250"><path fill="#000" d="m51.232 155.488-2.706 5.007v16.846h-8.832V122.51h8.823v23.892l11.547-23.892h8.814l-12.27 24.433 12.26 30.398h-9.02zm48.264 29.216v-7.363H80.651v7.363h-8.58v-15.077h3.456c1.515-1.877 2.002-3.916 2.165-7.128l2.002-40.024h24.692v47.152h3.87v15.041zm-13.153-22.295c-.234 4.15-1.037 5.946-2.48 7.281h11.546v-39.348h-7.46zm53.488-5.514v7.317c0 8.779-4.511 13.787-13.153 13.787-8.643 0-13.144-5.008-13.144-13.787v-28.511c0-8.77 4.51-13.787 13.144-13.787 8.633 0 13.153 4.981 13.153 13.751v5.323h-8.345v-5.874c0-3.916-1.804-5.413-4.565-5.413-2.76 0-4.573 1.488-4.573 5.413v29.613c0 3.915 1.804 5.323 4.573 5.323s4.565-1.408 4.565-5.323v-7.832zm6.08-10.891h16.031v7.832h-16.031zm48.743 10.891v7.317c0 8.779-4.511 13.787-13.153 13.787-8.643 0-13.145-5.008-13.145-13.787v-28.511c0-8.77 4.511-13.787 13.145-13.787 8.633 0 13.153 5.017 13.153 13.787v5.323h-8.336v-5.874c0-3.916-1.804-5.413-4.574-5.413s-4.565 1.488-4.565 5.413v29.613c0 3.916 1.759 5.323 4.565 5.323s4.574-1.407 4.574-5.323v-7.832zm3.924-34.385h27.262v7.831h-9.22v47h-8.823v-47h-9.219zm58.368 13.543v7.137c0 8.77-4.331 13.534-13.154 13.534h-4.167v20.607h-8.823V122.51h12.99c8.805 0 13.154 4.773 13.154 13.543m-17.321-5.712v18.533h4.167c2.806 0 4.331-1.254 4.331-5.17v-8.22c0-3.915-1.525-5.17-4.331-5.17zm21.804 5.325c0-8.77 4.727-13.787 13.388-13.787s13.388 5.017 13.388 13.787v28.547c0 8.779-4.728 13.787-13.388 13.787s-13.388-5.008-13.388-13.787zm8.823 29.062c0 3.915 1.759 5.413 4.565 5.413 2.805 0 4.574-1.489 4.574-5.413v-29.613c0-3.916-1.805-5.413-4.574-5.413s-4.565 1.488-4.565 5.413zm33.83 12.612h-9.084v-54.831h7.857v34.701l3.212-12.063 7.217-22.638h9.68v54.831h-7.939v-38.617l-3.609 13.47zm9.021-67.057c-.243 2.896-1.605 3.609-4.005 3.609s-3.527-.713-3.771-3.609h-5.413c.154 5.333 3.04 8.698 9.22 8.698s9.373-3.365 9.373-8.698z"/><path fill="#680A08" d="M250.901 212.213h-1.768l-2.787-3.518h-1.742v3.518h-1.497v-8.318h1.497v3.509h1.76l2.697-3.509h1.624l-3.158 4.006z"/><path fill="#000" d="M255.764 212.303a4.4 4.4 0 0 1-2.228-.55 3.94 3.94 0 0 1-1.534-1.516 4.51 4.51 0 0 1 0-4.385 3.96 3.96 0 0 1 1.534-1.498 4.84 4.84 0 0 1 4.447 0c.642.345 1.176.86 1.543 1.489a4.62 4.62 0 0 1 0 4.403 3.94 3.94 0 0 1-1.543 1.507 4.4 4.4 0 0 1-2.219.55m0-1.317a2.8 2.8 0 0 0 1.434-.361c.424-.243.77-.599 1.002-1.029a3.5 3.5 0 0 0 0-3.094 2.6 2.6 0 0 0-1.002-1.011 2.8 2.8 0 0 0-1.434-.361 2.8 2.8 0 0 0-1.425.361 2.7 2.7 0 0 0-1.002 1.011 3.34 3.34 0 0 0 0 3.094c.235.427.581.783 1.002 1.029.434.247.926.371 1.425.361m16.085-7.091v8.318h-1.362v-6.081l-3.112 5.134h-.65l-3.085-5.161v6.108h-1.371v-8.318h1.551l3.257 5.621 3.365-5.621zm2.932 8.318v-8.301h7.713v8.319h-1.507v-7.417l.361.379h-5.413l.361-.379v7.381zm16.229-7.571a3.78 3.78 0 0 0-2.643-.83 6.6 6.6 0 0 0-1.886.271 4.6 4.6 0 0 0-1.542.794l.622 1.137a3.5 3.5 0 0 1 1.191-.65 4.4 4.4 0 0 1 1.443-.252 2.33 2.33 0 0 1 1.678.523 1.97 1.97 0 0 1 .56 1.498v.288h-2.382a5.1 5.1 0 0 0-1.976.325 2.24 2.24 0 0 0-1.046.902 2.3 2.3 0 0 0-.325 1.218c-.014.45.115.893.37 1.264a2.5 2.5 0 0 0 1.074.902 4.1 4.1 0 0 0 1.623.307 3.85 3.85 0 0 0 1.895-.424c.335-.189.618-.459.821-.785v1.118h1.425v-5.034a3.23 3.23 0 0 0-.902-2.572m-1.506 6.118a2.7 2.7 0 0 1-1.48.379 2.1 2.1 0 0 1-1.344-.37 1.16 1.16 0 0 1-.487-.984 1.24 1.24 0 0 1 .388-.902 2.27 2.27 0 0 1 1.524-.379h2.328v1.164a2.1 2.1 0 0 1-.929 1.092m5.151 1.453v-8.301h1.506v3.528h4.737v-3.528h1.506v8.319h-1.506v-3.492h-4.737v3.492zm10.681 0v-8.301h1.507v6.054l5.106-6.054h1.362v8.319h-1.506v-6.063l-5.079 6.045zm16.211-2.887v.28h.235z"/><path fill="#000" d="M319.256 203.912a4.35 4.35 0 0 0-2.661.74 2.54 2.54 0 0 0-.992 2.174 2.42 2.42 0 0 0 .902 2.058c.317.213.672.363 1.046.442l-2.03 2.851h1.624l1.805-2.644h2.58v-.207l.234.279h-.234v2.644h1.353v-8.337zm2.526 4.593-.234.334v-.334h-2.301c-1.407 0-2.102-.542-2.102-1.624a1.39 1.39 0 0 1 .56-1.264 2.8 2.8 0 0 1 1.605-.388h2.238v-.415l.234.434h-.234v3.275z"/><path fill="#680A08" d="M250.288 229.726v-7.001h-6.45l-.117 2.806c0 .55-.082 1.073-.136 1.588a9 9 0 0 1-.243 1.353 2.25 2.25 0 0 1-.46.902.9.9 0 0 1-.74.325h-.37v3.257h1.425v-1.94h6.956v1.94h1.416v-3.257zm-1.497 0h-4.655a1 1 0 0 0 .207-.216 3.2 3.2 0 0 0 .433-1.011q.156-.66.217-1.335c.045-.487.09-1.002.108-1.516l.072-1.606h3.609z"/><path fill="#000" d="M257.225 231.143a4.9 4.9 0 0 1-2.345-.551 4 4 0 0 1-1.57-1.506 4.3 4.3 0 0 1-.559-2.202 4.37 4.37 0 0 1 .541-2.192 3.9 3.9 0 0 1 1.489-1.507 4.3 4.3 0 0 1 2.147-.542 4.13 4.13 0 0 1 2.129.542 3.6 3.6 0 0 1 1.452 1.498c.366.691.549 1.464.532 2.246v.46h-7.072v-1.082h6.315l-.614.379a2.8 2.8 0 0 0-.325-1.435 2.7 2.7 0 0 0-.947-.984 2.98 2.98 0 0 0-2.805 0c-.405.236-.736.58-.957.993a2.95 2.95 0 0 0-.343 1.453v.252c-.008.519.123 1.03.379 1.48.255.432.627.783 1.074 1.011a3.4 3.4 0 0 0 1.588.36c.459.006.915-.077 1.344-.243.404-.17.765-.429 1.055-.758l.839.974a3.6 3.6 0 0 1-1.407 1.002 4.8 4.8 0 0 1-1.94.352m14.218-6.478a3.9 3.9 0 0 0-1.489-1.48 4.35 4.35 0 0 0-2.165-.532 3.9 3.9 0 0 0-1.921.469 2.95 2.95 0 0 0-1.047.903v-1.327h-1.398v11.36h1.506v-4.322a2.9 2.9 0 0 0 1.02.902 3.9 3.9 0 0 0 1.885.469 4.25 4.25 0 0 0 2.165-.532 3.87 3.87 0 0 0 1.489-1.489 4.84 4.84 0 0 0 0-4.448zm-1.344 3.772a2.54 2.54 0 0 1-1.002 1.019c-.44.247-.938.372-1.443.361a2.7 2.7 0 0 1-1.407-.361 2.5 2.5 0 0 1-1.011-1.019 3.2 3.2 0 0 1-.361-1.552 3.1 3.1 0 0 1 .361-1.543 2.54 2.54 0 0 1 1.011-1.011 2.7 2.7 0 0 1 1.407-.361 2.83 2.83 0 0 1 1.443.361c.422.236.77.586 1.002 1.011.255.473.382 1.005.37 1.543a3.2 3.2 0 0 1-.37 1.552m11.177-1.544-.171.108.343.524h.631v-.524zm0 0-.171.108.343.524h.631v-.524zm-5.458-.659-.324.506.198.315.406-.054v-.595zm0 0-.324.506.198.315.406-.054v-.595z"/><path fill="#000" d="M285.553 231.044h-1.787l-2.318-3.519h.631v-.524l-.803-.108-.171.108.343.524h-1.606v3.519h-1.516v-3.519h-1.614l-2.292 3.519h-1.777l2.851-4.304.198.315.406-.054v-.586l-.27-.172-.334.497-2.643-4.015h1.596l2.256 3.518h1.623v-3.518h1.516v3.518h1.624l2.246-3.518h1.615l-2.634 4.015zm1.659 0v-8.319h1.471v6.063l5.097-6.063h1.371v8.319h-1.506v-6.055l-5.088 6.055zm17.096-8.319v1.317h-3.049v7.002h-1.507v-7.002h-3.04v-1.317z"/><path fill="#680A08" d="M246.725 249.974a4.6 4.6 0 0 1-2.265-.551 4.03 4.03 0 0 1-1.56-1.507 4.5 4.5 0 0 1 0-4.394 3.95 3.95 0 0 1 1.56-1.497 4.66 4.66 0 0 1 2.265-.542 4.44 4.44 0 0 1 2.02.442 3.2 3.2 0 0 1 1.372 1.327l-1.146.74a2.6 2.6 0 0 0-.992-.903 2.9 2.9 0 0 0-1.263-.288 2.9 2.9 0 0 0-1.462.36 2.7 2.7 0 0 0-1.019 1.011 3 3 0 0 0-.379 1.543 3.1 3.1 0 0 0 .379 1.561c.241.426.593.778 1.019 1.019.448.244.952.368 1.462.361.437 0 .869-.099 1.263-.288.403-.21.745-.521.992-.903l1.146.713a3.37 3.37 0 0 1-1.372 1.335 4.3 4.3 0 0 1-2.02.461"/><path fill="#000" d="m250.432 249.865.09-1.272h.379a1 1 0 0 0 .794-.343c.206-.267.353-.575.433-.902q.151-.642.199-1.3c.045-.478.072-.956.099-1.443l.135-3.068h6.351v8.31h-1.506v-7.408l.36.442h-4.267l.352-.46-.117 2.31c0 .731-.09 1.417-.171 2.057a8 8 0 0 1-.379 1.679c-.145.427-.39.813-.713 1.127a1.64 1.64 0 0 1-1.155.406 2.3 2.3 0 0 1-.424 0zm15.003.108a4.4 4.4 0 0 1-2.228-.55 4.14 4.14 0 0 1-1.543-1.516 4.58 4.58 0 0 1 0-4.385 4.03 4.03 0 0 1 1.543-1.498 4.83 4.83 0 0 1 4.447 0 4 4 0 0 1 1.534 1.489 4.61 4.61 0 0 1 0 4.403 4.04 4.04 0 0 1-1.534 1.507 4.44 4.44 0 0 1-2.219.55m0-1.317a2.9 2.9 0 0 0 1.434-.361c.423-.241.767-.598.993-1.029.25-.478.374-1.012.361-1.552a3.1 3.1 0 0 0-.361-1.542 2.55 2.55 0 0 0-.993-1.011 3.03 3.03 0 0 0-2.868 0 2.76 2.76 0 0 0-1.002 1.011 3 3 0 0 0-.379 1.542 3.1 3.1 0 0 0 .379 1.552c.235.427.581.782 1.002 1.029a2.9 2.9 0 0 0 1.434.361m13.054-2.69a2.4 2.4 0 0 0-.902-.406q.303-.107.568-.289a1.8 1.8 0 0 0 .794-1.579 1.8 1.8 0 0 0-.214-.902 1.8 1.8 0 0 0-.634-.677 4.1 4.1 0 0 0-2.292-.55h-3.861v8.364h3.997a4.13 4.13 0 0 0 2.481-.614 1.98 1.98 0 0 0 .802-1.678 1.89 1.89 0 0 0-.739-1.669m-5.088-3.248h2.264c.457-.033.913.074 1.308.307a.98.98 0 0 1 .442.902 1.04 1.04 0 0 1-.442.902 2.2 2.2 0 0 1-1.308.325h-2.264zm3.834 5.702a2.7 2.7 0 0 1-1.417.289h-2.417v-2.49h2.517c.471-.037.943.07 1.353.306a1.12 1.12 0 0 1 .442.966 1.01 1.01 0 0 1-.478.929m11.646-4.907a3.9 3.9 0 0 0-1.542-1.489 4.5 4.5 0 0 0-2.211-.541 4.6 4.6 0 0 0-2.237.541 3.97 3.97 0 0 0-1.525 1.489 4.27 4.27 0 0 0-.568 2.211 4.2 4.2 0 0 0 .568 2.183 4.04 4.04 0 0 0 1.525 1.516 4.56 4.56 0 0 0 2.237.541 4.5 4.5 0 0 0 2.211-.541 4 4 0 0 0 1.542-1.507 4.61 4.61 0 0 0 0-4.403m-1.326 3.754a2.53 2.53 0 0 1-.992 1.028c-.44.239-.934.36-1.435.352a2.83 2.83 0 0 1-1.425-.352 2.7 2.7 0 0 1-1.01-1.028 3.2 3.2 0 0 1-.379-1.543 3.1 3.1 0 0 1 .379-1.552 2.65 2.65 0 0 1 1.01-1.011 2.7 2.7 0 0 1 1.425-.361c.502-.009.997.116 1.435.361.421.234.766.585.992 1.011.261.475.388 1.011.37 1.552a3.1 3.1 0 0 1-.37 1.543"/><path fill="#680A08" d="M13.667 204.408V95.334l80.047-77.415V0L.009 89.848l.009.009H0v127.77h216.26l.189-13.219z"/></svg>