<?xml version="1.0" standalone="no"?>
<!DOCTYPE svg PUBLIC "-//W3C//DTD SVG 20010904//EN"
 "http://www.w3.org/TR/2001/REC-SVG-20010904/DTD/svg10.dtd">
<svg version="1.0" xmlns="http://www.w3.org/2000/svg"
 width="772.000000pt" height="772.000000pt" viewBox="0 0 772.000000 772.000000"
 preserveAspectRatio="xMidYMid meet">
<metadata>
Created by potrace 1.14, written by Peter Selinger 2001-2017
</metadata>
<g transform="translate(0.000000,772.000000) scale(0.100000,-0.100000)"
fill="#000000" stroke="none">
<path d="M2155 6579 c-649 -622 -1395 -1337 -1657 -1588 l-477 -456 -1 -2267
0 -2268 3834 0 3833 0 6 83 c4 45 7 151 7 235 l0 152 -3595 0 -3595 0 0 1938
1 1937 1414 1365 1414 1365 0 318 c1 174 0 317 -1 317 -2 0 -534 -509 -1183
-1131z"/>
</g>
</svg>
